<?xml version="1.0" encoding="UTF-8" standalone="no"?>
<!-- Created with Inkscape (http://www.inkscape.org/) -->

<svg
   version="1.1"
   id="svg2"
   width="1600"
   height="400"
   viewBox="0 0 1600 400"
   sodipodi:docname="StyleStore_1_Logo_black.ai"
   xmlns:inkscape="http://www.inkscape.org/namespaces/inkscape"
   xmlns:sodipodi="http://sodipodi.sourceforge.net/DTD/sodipodi-0.dtd"
   xmlns="http://www.w3.org/2000/svg"
   xmlns:svg="http://www.w3.org/2000/svg">
  <defs
     id="defs6">
    <clipPath
       clipPathUnits="userSpaceOnUse"
       id="clipPath16">
      <path
         d="M 0,300 H 1200 V 0 H 0 Z"
         id="path14" />
    </clipPath>
  </defs>
  <sodipodi:namedview
     id="namedview4"
     pagecolor="#ffffff"
     bordercolor="#000000"
     borderopacity="0.25"
     inkscape:showpageshadow="2"
     inkscape:pageopacity="0.0"
     inkscape:pagecheckerboard="0"
     inkscape:deskcolor="#d1d1d1" />
  <g
     id="g8"
     inkscape:groupmode="layer"
     inkscape:label="StyleStore_1_Logo_black"
     transform="matrix(1.3333333,0,0,-1.3333333,0,400)">
    <g
       id="g10">
      <g
         id="g12"
         clip-path="url(#clipPath16)">
        <g
           id="g18"
           transform="translate(151.3698,147.034)">
          <path
             d="m 0,0 h 20.731 c 1.594,-22.524 15.747,-35.88 38.072,-35.88 23.122,0 36.677,9.568 36.677,26.112 0,20.333 -19.536,23.323 -40.264,26.511 -24.121,3.787 -51.03,7.973 -51.03,39.07 0,27.507 20.133,42.654 54.218,42.654 31.892,0 52.025,-18.936 54.217,-50.627 h -20.53 c -1.197,21.128 -14.153,33.486 -34.482,33.486 -20.334,0 -32.294,-8.77 -32.294,-24.119 0,-17.341 17.94,-20.132 37.673,-23.123 25.116,-3.985 53.819,-8.372 53.819,-42.057 0,-28.307 -21.726,-45.049 -58.403,-45.049 C 24.12,-53.022 2.392,-33.488 0,0"
             style="fill:#000000;fill-opacity:1;fill-rule:nonzero;stroke:none"
             id="path20" />
        </g>
        <g
           id="g22"
           transform="translate(305.3948,180.7207)">
          <path
             d="m 0,0 v -54.019 c 0,-10.565 6.379,-16.546 17.342,-16.546 4.784,0 9.966,1.196 13.952,3.191 v -15.149 c -5.582,-2.591 -13.155,-4.185 -20.332,-4.185 -19.334,0 -30.895,11.36 -30.895,30.696 V 0 h -15.349 v 14.55 h 16.743 V 48.437 H 1.395 V 40.066 C 1.395,28.505 -5.78,19.335 -17.741,14.95 v -0.4 H 32.69 V 0 Z"
             style="fill:#000000;fill-opacity:1;fill-rule:nonzero;stroke:none"
             id="path24" />
        </g>
        <g
           id="g26"
           transform="translate(437.8097,195.2711)">
          <path
             d="m 0,0 -43.455,-145.111 h -21.327 l 13.752,45.844 H -67.574 L -97.472,0 h 21.528 l 27.108,-97.869 h 0.399 L -21.33,0 Z"
             style="fill:#000000;fill-opacity:1;fill-rule:nonzero;stroke:none"
             id="path28" />
        </g>
        <path
           d="m 444.548,249.49 h 19.933 V 96.006 h -19.933 z"
           style="fill:#000000;fill-opacity:1;fill-rule:nonzero;stroke:none"
           id="path30" />
        <g
           id="g32"
           transform="translate(495.2959,151.2196)">
          <path
             d="M 0,0 H 54.617 C 53.021,19.335 43.255,30.496 27.506,30.496 11.561,30.496 1.595,19.335 0,0 M 74.35,-8.372 H -0.199 c 0.797,-20.93 11.161,-33.288 27.705,-33.288 14.552,0 24.718,7.973 27.31,21.528 H 74.35 c -3.389,-23.323 -20.729,-37.075 -46.844,-37.075 -29.699,0 -47.04,19.134 -47.04,51.624 0,32.491 17.341,51.628 47.04,51.628 29.502,0 46.844,-19.137 46.844,-51.628 z"
             style="fill:#000000;fill-opacity:1;fill-rule:nonzero;stroke:none"
             id="path34" />
        </g>
        <g
           id="g36"
           transform="translate(597.3698,147.034)">
          <path
             d="m 0,0 h 20.731 c 1.593,-22.524 15.745,-35.88 38.072,-35.88 23.12,0 36.675,9.568 36.675,26.112 0,20.333 -19.534,23.323 -40.263,26.511 -24.121,3.787 -51.029,7.973 -51.029,39.07 0,27.507 20.133,42.654 54.218,42.654 31.892,0 52.025,-18.936 54.216,-50.627 H 92.091 c -1.198,21.128 -14.153,33.486 -34.484,33.486 -20.332,0 -32.292,-8.77 -32.292,-24.119 0,-17.341 17.94,-20.132 37.672,-23.123 25.117,-3.985 53.819,-8.372 53.819,-42.057 0,-28.307 -21.725,-45.049 -58.402,-45.049 C 24.12,-53.022 2.392,-33.488 0,0"
             style="fill:#000000;fill-opacity:1;fill-rule:nonzero;stroke:none"
             id="path38" />
        </g>
        <g
           id="g40"
           transform="translate(751.3934,180.7207)">
          <path
             d="m 0,0 v -54.019 c 0,-10.565 6.379,-16.546 17.344,-16.546 4.783,0 9.965,1.196 13.95,3.191 v -15.149 c -5.58,-2.591 -13.155,-4.185 -20.331,-4.185 -19.335,0 -30.894,11.36 -30.894,30.696 V 0 h -15.35 v 14.55 h 16.743 V 48.437 H 1.396 v -8.371 c 0,-11.561 -7.174,-20.731 -19.137,-25.116 v -0.4 H 32.692 V 0 Z"
             style="fill:#000000;fill-opacity:1;fill-rule:nonzero;stroke:none"
             id="path42" />
        </g>
        <g
           id="g44"
           transform="translate(861.483,145.6384)">
          <path
             d="M 0,0 C 0,22.325 -10.764,35.48 -29.302,35.48 -47.84,35.48 -58.604,22.325 -58.604,0 c 0,-22.325 10.764,-35.48 29.302,-35.48 C -10.764,-35.48 0,-22.325 0,0 m -78.935,0 c 0,32.491 18.538,51.627 49.633,51.627 31.296,0 49.633,-19.136 49.633,-51.627 0,-32.491 -18.337,-51.627 -49.633,-51.627 -31.095,0 -49.633,19.136 -49.633,51.627"
             style="fill:#000000;fill-opacity:1;fill-rule:nonzero;stroke:none"
             id="path46" />
        </g>
        <g
           id="g48"
           transform="translate(960.4729,194.2752)">
          <path
             d="m 0,0 -5.981,-18.538 c -3.785,2.193 -9.168,3.588 -14.352,3.588 -17.143,0 -27.108,-13.357 -27.108,-36.079 v -47.24 H -67.374 V 0.996 h 19.933 v -38.869 h 0.398 c 0,25.714 11.762,40.863 31.695,40.863 C -9.766,2.99 -3.987,1.793 0,0"
             style="fill:#000000;fill-opacity:1;fill-rule:nonzero;stroke:none"
             id="path50" />
        </g>
        <g
           id="g52"
           transform="translate(973.2902,151.2196)">
          <path
             d="M 0,0 H 54.617 C 53.021,19.335 43.255,30.496 27.506,30.496 11.56,30.496 1.595,19.335 0,0 M 74.35,-8.372 H -0.199 c 0.797,-20.93 11.161,-33.288 27.705,-33.288 14.552,0 24.718,7.973 27.31,21.528 H 74.35 c -3.389,-23.323 -20.729,-37.075 -46.844,-37.075 -29.699,0 -47.04,19.134 -47.04,51.624 0,32.491 17.341,51.628 47.04,51.628 29.502,0 46.844,-19.137 46.844,-51.628 z"
             style="fill:#000000;fill-opacity:1;fill-rule:nonzero;stroke:none"
             id="path54" />
        </g>
      </g>
    </g>
  </g>
</svg>
