<svg xmlns="http://www.w3.org/2000/svg" xmlns:svgjs="http://svgjs.com/svgjs" xmlns:xlink="http://www.w3.org/1999/xlink" width="288" height="288"><svg xmlns="http://www.w3.org/2000/svg" width="288" height="288" viewBox="0 0 98.695 37.464"><defs><clipPath id="a"><rect width="98.695" height="37.464" fill="none" data-name="Rectángulo 4800"/></clipPath></defs><g class="color000 svgShape" clip-path="url(#a)" data-name="Grupo 15154"><path d="M19.349,10.881c0-2.77.017-5.43-.013-8.09-.007-.6-.012-.325-.012-.853,0,0,2.5-1.37,3.5-1.937,0,.41,0,.677,0,.943q0,13.565,0,27.13c0,5.053-3.082,8.529-8.116,9.169a15.913,15.913,0,0,1-7-.51,9.967,9.967,0,0,1-6.7-6.8,20.035,20.035,0,0,1,.092-12.867c1.436-4.168,4.562-6.339,8.836-6.95a22.555,22.555,0,0,1,8.8.646c.165.042.334.069.6.123m0,11.084h0c0-2.234-.022-4.468.016-6.7a.807.807,0,0,0-.691-.938,21.713,21.713,0,0,0-7.282-.884c-3.878.218-6.4,2.173-7.323,5.774A17.316,17.316,0,0,0,4.074,28,7.167,7.167,0,0,0,9.328,33.55a11.124,11.124,0,0,0,5.363.129c3.211-.709,4.659-2.511,4.659-5.765V21.965" class="colorfafafa svgShape" data-name="Trazado 41965" transform="translate(0 -.001)"/><path d="M195.016,76.414c.094-4.813-2.195-6.534-5.52-6.983a23.469,23.469,0,0,0-9.51.976c-.169.047-.339.088-.511.121a1.438,1.438,0,0,1-.273-.01c0-1.062-.016-2.113.018-3.162a.631.631,0,0,1,.387-.438,24.968,24.968,0,0,1,11.53-.753c4.178.843,6.879,3.662,7.186,7.969a103.6,103.6,0,0,1,.142,11.885c-.128,2.894-1.945,4.919-4.587,6.02a15.3,15.3,0,0,1-12.9-.281A7.977,7.977,0,0,1,181.08,77.4a15.979,15.979,0,0,1,7.529-1.489c1.875.045,3.746.281,5.619.433.248.02.5.046.788.074m.035,3.61a27.662,27.662,0,0,0-8.523-.543,9.746,9.746,0,0,0-4.472,1.392,4.411,4.411,0,0,0,.065,7.53,9.638,9.638,0,0,0,4.419,1.323,10.879,10.879,0,0,0,6.475-1.191,3.588,3.588,0,0,0,2.008-2.917c.112-1.845.028-3.7.028-5.594" class="colorfafafa svgShape" data-name="Trazado 41966" transform="translate(-149.905 -55.866)"/><path d="M506.963,26.77v-1c0-7.613.009-15.225-.016-22.838,0-.641,0-.514,0-.891.9-.478,2.494-1.372,3.478-1.927V11.824c.714-.242,1.312-.451,1.914-.647a19.133,19.133,0,0,1,9.783-.848,8.106,8.106,0,0,1,6.9,7.571c.155,1.62.153,3.258.162,4.888.021,3.919,0,7.839.02,11.758,0,.526,0,.356,0,.7-.931.479-2.449,1.374-3.482,1.964,0-.365,0-.628,0-.89,0-5.276.03-10.553-.022-15.828a11.76,11.76,0,0,0-.513-3.547c-.845-2.541-2.977-3.284-5.4-3.418a19.6,19.6,0,0,0-8.891,1.9,1.057,1.057,0,0,0-.4.82q-.047,3.919-.009,7.839c0,.517,0,.419,0,.721-.928.48-2.433,1.354-3.512,1.964" class="colorfafafa svgShape" data-name="Trazado 41967" transform="translate(-430.508 -.094)"/><path d="M349.256,87.84c1.46.465,2.8.967,4.17,1.314a17.581,17.581,0,0,0,8.121.394,4.181,4.181,0,0,0,3.617-3.53,3.166,3.166,0,0,0-1.826-3.677,25.687,25.687,0,0,0-3.537-1.232c-1.8-.543-3.66-.893-5.4-1.566a6.833,6.833,0,0,1-2.934-10.876,7.788,7.788,0,0,1,5.027-2.625,20.842,20.842,0,0,1,10.475,1.368.714.714,0,0,1,.386.515c.036,1.052.018,2.106.018,3.267-.912-.309-1.749-.612-2.6-.877a16.79,16.79,0,0,0-7.858-.815c-2.531.424-3.925,2.324-3.422,4.575a2.963,2.963,0,0,0,2.089,2.187c1.534.531,3.119.913,4.677,1.374,1.319.391,2.663.723,3.939,1.225a6.44,6.44,0,0,1,4.5,6.154,7.225,7.225,0,0,1-4.064,7.087,13.572,13.572,0,0,1-7.189,1.188,25.393,25.393,0,0,1-7.622-1.609c-.406-.153-.6-.331-.579-.795.038-.976.012-1.954.012-3.044" class="colorfafafa svgShape" data-name="Trazado 41968" transform="translate(-296.584 -55.917)"/><path fill="#e89300" d="M510.574,186.723c-1.047.592-2.495,1.432-3.427,1.92l-.087.028q0,.146,0,.291c0,.069,0,.157,0,.354q0,2.727,0,5.454v1c1.047-.592,2.494-1.432,3.427-1.92l.087-.028v-.292c0-.069,0-.157,0-.354q0-2.727,0-5.454Z" class="colore89300 svgShape" data-name="Trazado 41969" transform="translate(-430.603 -158.569)"/></g></svg></svg>