<?xml version="1.0" encoding="utf-8"?>
<svg version="1.1" id="Capa_1" xmlns="http://www.w3.org/2000/svg" xmlns:xlink="http://www.w3.org/1999/xlink" x="0px" y="0px"
	 viewBox="0 0 320 137" style="enable-background:new 0 0 320 137;" xml:space="preserve">
<style type="text/css">
	.st0{fill:#FB0411;}
</style>
<g>
	<path d="M309.6,98.5c-0.6-0.1-64.5-7.1-102.2-32.8c-11.4-8.5-14.7-13.1-13.8-18.9c1.2-7.3,10.3-11.2,33.7-14.4l7,2.4
		c0.1,0,0.1,0,0.2,0c0.3,0,0.5-0.2,0.5-0.5c0-0.1,0-0.1,0-0.2L231.6,18c-0.3-2-2.4-5.8-8.1-6.3c-6.3-0.5-16.5-1.2-18-1.3
		c-1.3-1.1-10.1-8.6-24.3-8.6c-4.1,0-8.3,0.6-12.6,1.9c-16.7,4.9-38.4,22-47.7,29.4l-0.1,0c-1.3,1.1-2.4,1.9-3.1,2.5
		c0,0-0.1,0.1-0.4,0.3c-4.6,4.1-17.3,14.8-34.8,26.6c-25.1,17-49.3,29.1-72.1,35.9c-0.2,0.1-0.4,0.3-0.3,0.6c0,0.3,0.3,0.4,0.5,0.4
		h68.1c0,0,0.1,0,0.1,0l0.1,0c1.9-0.4,9.1-2,20.7-6.2c16.3-5.9,33.7-13.9,51.7-24c0.2-0.1,0.3-0.3,0.3-0.5c0-0.2-0.1-0.4-0.3-0.5
		C151,68.1,130.1,56,123,42l0.2-0.2c7.8-6.8,14.4-11.9,18.6-15c11.7-8.6,21.3-14,28.4-16c4.7-1.3,8.3-1.9,11.6-1.9
		c6.8,0,11.5,2.6,19,8c0.1,0.1,0.2,0.1,0.3,0.1l17.7,1c4.2,0.2,6.1,0.4,6.9,3.1c0.4,1.9,0.8,3.7,1.2,5.4l-2.9-0.4
		c-0.1,0-0.1,0-0.2,0c-0.2,0-16.9,3-22.4,5c-10,3.6-14.9,9.4-15,17.6c-1.5,3.9-13.3,13.1-28.7,22.3c-11.1,6.6-33.9,19-61,27.6
		c-0.2,0.1-0.4,0.3-0.3,0.6c0,0.3,0.3,0.4,0.5,0.4h212.8c0.3,0,0.5-0.2,0.5-0.5C310.1,98.8,309.9,98.5,309.6,98.5z M213.4,78.4
		c-0.1,0.1-0.2,0.1-0.3,0.1c0,0-0.1,0-0.1,0c-0.8-0.3-1.5-0.5-2.2-0.8c-6.4-2.2-11.5-4-14.6-4.1c-4.1-0.2-5.8,5.7-6.6,8.5
		c-0.1,0.3-0.1,0.5-0.2,0.7c0,0-0.1,0.4-0.4,0.4c-0.2,0-0.3-0.1-0.4-0.4c-0.3-2.4-1.8-10-6.2-9.8c-4.2,0.2-10.2,2.3-13.8,3.6
		c-0.8,0.3-1.5,0.5-2,0.7c-1,0.3-1.4,0.5-1.5,0.5c-0.2,0-0.4-0.1-0.5-0.2c-0.1-0.2,0-0.4,0.1-0.5c7.5-4.4,14.4-10.1,19.4-14.2
		c2.2-1.8,3.9-3.3,5.1-4.1c0.1-0.1,0.2-0.1,0.3-0.1c0.1,0,0.2,0.1,0.2,0.2c4.7,6.9,9.1,11.1,23.5,18.9c0.2,0.1,0.3,0.2,0.3,0.4
		C213.6,78.2,213.5,78.4,213.4,78.4z"/>
	<g>
		<path d="M42.7,105.8H10.2c-0.1,0-0.3,0.1-0.3,0.3v25.5c0,0.2,0.2,0.4,0.4,0.4h7c0,0,0,0,0,0c0.1,0,0.3-0.1,0.3-0.3
			c0,0,0-0.1,0-0.1l0-20.2c0-0.2,0.2-0.4,0.4-0.4h8.3c0.2,0,0.4,0.2,0.4,0.4v20.2c0,0.2,0.2,0.4,0.4,0.4h6.9c0.2,0,0.4-0.2,0.4-0.4
			v-20.2c0-0.2,0.2-0.4,0.4-0.4h5.4c2.2,0.1,3.1,0.8,3.2,2.6v18c0,0.2,0.2,0.4,0.4,0.4h6.9c0.2,0,0.4-0.2,0.4-0.4v-16
			C50.7,108.4,46.6,105.8,42.7,105.8z"/>
		<path d="M78.9,105.8l-14.4,0.1c-2.6,0-4.9,1-6.5,2.6c-1.6,1.7-2.5,4-2.4,6.7v8.5c0.1,5.7,5.3,8.3,8.8,8.3h0.1l14.3,0h0
			c3.3,0,9.6-1.5,9.7-7.4v-10.3c0.1-2.1-0.7-4-2.1-5.5C84.5,107,81.6,105.8,78.9,105.8z M67.8,127.3c-1.8,0-4.5-1.5-4.5-4.9v-6.3
			c0-1.6,0.4-3,1.3-3.9c0.8-0.8,1.9-1.2,3.2-1.2h8l0.1,0c1.1,0,2.7,0.4,3.7,1.5c0.8,0.8,1.1,1.8,1.1,3.1v7.4c-0.1,3.4-3.2,4.3-5,4.3
			L67.8,127.3z M78.7,131.7L78.7,131.7L78.7,131.7L78.7,131.7z"/>
		<path d="M160.2,105.8h-28.1c-0.1,0-0.3,0.1-0.3,0.3l0,5.1c0,0.1,0,0.1,0.1,0.2c0,0.1,0.1,0.1,0.2,0.1h10.1v20.2
			c0,0.2,0.1,0.3,0.3,0.3h7.6c0.1,0,0.3-0.1,0.3-0.3v-20.2h9.9c0.1,0,0.3-0.1,0.3-0.3v-5.1C160.5,105.9,160.4,105.8,160.2,105.8z"/>
		<path d="M118.1,105.9H94c-0.2,0-0.4,0.2-0.4,0.4v25.3c0,0.2,0.2,0.4,0.4,0.4h7.3c0.2,0,0.4-0.2,0.4-0.4v-20.4l14.2,0
			c1.3,0,2.8,0.5,2.8,2.4l0,18c0,0.2,0.2,0.4,0.4,0.4l7.2,0c0.2,0,0.4-0.2,0.4-0.4v-15.8c0.1-3.2-0.6-5.7-2.3-7.5
			C122.2,106.1,119.2,105.9,118.1,105.9z"/>
		<path d="M270.3,105.9h-24.1c-0.2,0-0.4,0.2-0.4,0.4v25.3c0,0.2,0.2,0.4,0.4,0.4h7.3c0.2,0,0.4-0.2,0.4-0.4v-20
			c0-0.2,0.2-0.4,0.4-0.4l13.9,0c1.3,0,2.8,0.5,2.8,2.4l0,18c0,0.2,0.2,0.4,0.4,0.4l7.2,0c0.2,0,0.4-0.2,0.4-0.4v-15.8
			c0.1-3.2-0.6-5.7-2.3-7.5C274.4,106.1,271.5,105.9,270.3,105.9z"/>
		<path d="M239.7,117l-15.4,0c-0.2,0-0.4,0.2-0.4,0.4l0,3.5c0,0.2,0.2,0.4,0.4,0.4l7.4,0c0.2,0,0.4,0.2,0.4,0.4l0,5.1
			c0,0.2-0.2,0.4-0.4,0.4l-13.4,0c-0.1,0-3.3-0.1-3.3-3v-10.1c0-0.3,0.5-3,3.6-3l19,0c0.2,0,0.4-0.2,0.4-0.4l0-4.5l0,0
			c0-0.2-0.2-0.4-0.4-0.4l-21.1,0c-2.8,0-9.2,0.9-9.2,7.5v11.8c0.1,3.9,4.3,6.7,7.2,6.7l25.2,0c0.2,0,0.4-0.2,0.4-0.4v-14.2
			C240.1,117.2,239.9,117,239.7,117z"/>
		<path d="M309.7,111.4c0.2,0,0.4-0.2,0.4-0.4l0-4.8c0-0.2-0.2-0.4-0.4-0.4h-25.5c-0.2,0-0.4,0.2-0.4,0.4v25.4
			c0,0.2,0.2,0.4,0.4,0.4h25.5c0.2,0,0.4-0.2,0.4-0.4v-4.4c0-0.2-0.2-0.4-0.4-0.4h-18.3v-5.6h16.4c0.2,0,0.4-0.2,0.4-0.4v-3.4
			c0-0.2-0.2-0.4-0.4-0.4h-16.4v-5.6H309.7z"/>
		<path class="st0" d="M205,127.6C205,127.5,205,127.5,205,127.6C205,127.5,205,127.5,205,127.6C204.9,127.5,204.9,127.5,205,127.6
			c-13.1-8.8-22.8-19-25.7-22.8c0,0,0,0,0,0c-0.1-0.1-0.2-0.1-0.3-0.1s-0.2,0.1-0.3,0.1c0,0,0,0,0,0c-2.9,3.8-12.5,14-25.6,22.7
			c0,0,0,0,0,0c0,0,0,0,0,0c0,0,0,0,0,0c-0.1,0.1-0.1,0.2-0.1,0.3c0,0.3,0.2,0.5,0.5,0.5c0.1,0,0.1,0,0.2,0c2-0.8,3.8-1.4,5.3-2
			c10.7-4,11.9-3.6,14.4-2c2.2,1.5,4.1,6.8,5,9.4c0.2,0.5,0.3,1,0.4,1.3c0,0.1,0.1,0.1,0.1,0.2c0,0,0,0,0,0c0,0,0.1,0.1,0.1,0.1
			c0.1,0,0.1,0,0.2,0c0,0,0.1,0,0.2,0c0,0,0.1,0,0.1-0.1c0,0,0,0,0,0c0,0,0.1-0.1,0.1-0.2c0.1-0.3,0.2-0.7,0.4-1.3
			c0.9-2.6,2.7-7.9,5-9.4c2.5-1.6,3.6-1.9,14.4,2c1.6,0.6,3.3,1.2,5.3,2c0.1,0,0.1,0,0.2,0c0.3,0,0.5-0.2,0.5-0.5
			C205.1,127.8,205.1,127.6,205,127.6z"/>
		<path class="st0" d="M139.5,69.8C139.5,69.8,139.5,69.8,139.5,69.8c-3.9-2.4-16.5-11.4-22.9-21.3c-0.1-0.1-0.2-0.3-0.5-0.3
			c-0.1,0-0.2,0-0.3,0.1c0,0,0,0,0,0c0,0,0,0,0,0c-1.7,1.2-14.7,12.5-27.8,20.8c-0.1,0.1-0.2,0.2-0.2,0.4c0,0.3,0.3,0.5,0.6,0.4
			c5.2-1.8,14.3-5.8,19.2-5.6c4.9,0.1,6.7,8.9,7.4,10.1c0,0,0.1,0.3,0.5,0.3c0.4,0,0.4-0.3,0.4-0.4c0.4-1.4,2.5-9,7.8-8.8
			c5.4,0.1,12.7,4.1,15.3,5.1c0,0,0,0,0,0c0.3,0.1,0.6-0.1,0.6-0.4C139.7,70,139.6,69.9,139.5,69.8z"/>
	</g>
</g>
</svg>
